{
	"asset":{
		"generator":"Khronos glTF Blender I/O v3.5.30",
		"version":"2.0"
	},
	"scene":0,
	"scenes":[
		{
			"name":"Scene",
			"nodes":[
				0,
				1
			]
		}
	],
	"nodes":[
		{
			"mesh":0,
			"name":"Sphere",
			"translation":[
				-0.015497207641601562,
				0.01605224609375,
				0.009182751178741455
			]
		},
		{
			"name":"Empty",
			"rotation":[
				0.26618796586990356,
				0.733505129814148,
				-0.45443177223205566,
				0.4296579658985138
			],
			"scale":[
				0.01539966557174921,
				0.5285285115242004,
				0.014769366942346096
			],
			"translation":[
				0.7426445484161377,
				0.6292037963867188,
				0.024508655071258545
			]
		}
	],
	"materials":[
		{
			"doubleSided":true,
			"name":"Material.001",
			"pbrMetallicRoughness":{
				"baseColorTexture":{
					"index":0
				},
				"metallicFactor":0,
				"roughnessFactor":0.5
			}
		}
	],
	"meshes":[
		{
			"name":"Sphere",
			"primitives":[
				{
					"attributes":{
						"POSITION":0,
						"TEXCOORD_0":1,
						"NORMAL":2
					},
					"indices":3,
					"material":0
				}
			]
		}
	],
	"textures":[
		{
			"sampler":0,
			"source":0
		}
	],
	"images":[
		{
			"bufferView":4,
			"mimeType":"image/png",
			"name":"wp3328614"
		}
	],
	"accessors":[
		{
			"bufferView":0,
			"componentType":5126,
			"count":480,
			"max":[
				1,
				1,
				1
			],
			"min":[
				-0.9999999403953552,
				-1,
				-1
			],
			"type":"VEC3"
		},
		{
			"bufferView":1,
			"componentType":5126,
			"count":480,
			"type":"VEC2"
		},
		{
			"bufferView":2,
			"componentType":5126,
			"count":480,
			"type":"VEC3"
		},
		{
			"bufferView":3,
			"componentType":5123,
			"count":672,
			"type":"SCALAR"
		}
	],
	"bufferViews":[
		{
			"buffer":0,
			"byteLength":5760,
			"byteOffset":0,
			"target":34962
		},
		{
			"buffer":0,
			"byteLength":3840,
			"byteOffset":5760,
			"target":34962
		},
		{
			"buffer":0,
			"byteLength":5760,
			"byteOffset":9600,
			"target":34962
		},
		{
			"buffer":0,
			"byteLength":1344,
			"byteOffset":15360,
			"target":34963
		},
		{
			"buffer":0,
			"byteLength":65327,
			"byteOffset":16704
		}
	],
	"samplers":[
		{
			"magFilter":9729,
			"minFilter":9987
		}
	],
	"buffers":[
		{
			"byteLength":82032,
			"uri":"data:application/octet-stream;base64,"
		}
	]
}
